<?xml version="1.0" encoding="UTF-8"?>
<svg version="1.1" xmlns="http://www.w3.org/2000/svg" width="500" height="500">
<path d="M0 0 C165 0 330 0 500 0 C500 165 500 330 500 500 C335 500 170 500 0 500 C0 335 0 170 0 0 Z " fill="#000000" transform="translate(0,0)"/>
<path d="M0 0 C65.30480361 0 65.30480361 0 77.21484375 11.15234375 C85.47983405 19.70669914 87.54880107 28.45291748 87.48754883 40.12207031 C87.12449427 50.65392325 83.64478177 59.53766258 76.23046875 67.1328125 C72.49460051 70.26021183 68.55215019 72.3099063 64 74 C63.39269043 74.26111572 62.78538086 74.52223145 62.15966797 74.79125977 C53.09306773 78.17704028 43.39376825 77.32116177 33.875 77.1875 C27.64625 77.125625 21.4175 77.06375 15 77 C15 93.17 15 109.34 15 126 C10.05 126 5.1 126 0 126 C0 84.42 0 42.84 0 0 Z " fill="#F6F6F6" transform="translate(278,175)"/>
<path d="M0 0 C68.935 0 68.935 0 85 14 C85.58136719 14.45375 86.16273438 14.9075 86.76171875 15.375 C96.39473291 23.68753356 101.96988148 38.64139234 103 51 C104.19459714 71.19169691 102.93126637 92.0537375 89 108 C88.30197266 108.87205078 88.30197266 108.87205078 87.58984375 109.76171875 C83.97903322 113.87120899 79.68444189 116.60326459 74.9375 119.25 C74.36717041 119.57935547 73.79684082 119.90871094 73.20922852 120.24804688 C52.31087442 131.29444077 19.20007158 126 0 126 C0 84.42 0 42.84 0 0 Z M16 13 C16 46 16 79 16 113 C48.20190713 115.06745156 48.20190713 115.06745156 75.21484375 101.921875 C87.06723358 89.16175291 87.58956354 72.38799798 87.3125 55.91796875 C86.78920555 42.21419536 82.66766504 31.35620725 72.875 21.6875 C57.79662527 8.85810319 33.06368796 13 16 13 Z " fill="#F5F5F5" transform="translate(144,175)"/>
<path d="M0 0 C6.084375 -0.0825 12.16875 -0.165 18.4375 -0.25 C20.33943115 -0.28641602 22.2413623 -0.32283203 24.20092773 -0.36035156 C42.17491712 -0.56356249 42.17491712 -0.56356249 48.85131836 5.75097656 C55.54524833 12.86836431 55.60746743 20.22144334 55.3671875 29.52734375 C55.0341798 35.18493209 53.71738129 39.63014532 50 44 C42.93578998 50.1955549 36.84765455 51.16034254 27.63671875 51.09765625 C26.93405884 51.09664917 26.23139893 51.09564209 25.50744629 51.09460449 C22.90078075 51.08940101 20.29413861 51.07543987 17.6875 51.0625 C11.850625 51.041875 6.01375 51.02125 0 51 C0 34.17 0 17.34 0 0 Z " fill="#000000" transform="translate(294,188)"/>
</svg>
